<svg id="Layer_1" data-name="Layer 1" xmlns="http://www.w3.org/2000/svg" viewBox="0 0 946.09 1072.29"><defs><style>.cls-1{fill:none;stroke:#999;stroke-linecap:round;stroke-width:13px;}.cls-1,.cls-3{stroke-miterlimit:10;}.cls-2{fill:#005a1b;}.cls-3,.cls-5{font-size:90.7px;font-family:Gulim;}.cls-3{stroke:#000;stroke-width:5px;}.cls-4{fill:#65440d;}</style></defs><title>Logo</title><circle class="cls-1" cx="473.05" cy="473.05" r="466.55"/><path class="cls-2" d="M655.06,147.65c9.22,8.82,21.1,18.14,32.48,23.54,6,2.86,12.39,5.25,17.63,9.49,9.06,7.33,13.58,19.16,16.79,30.65,1.75,6.29,3.25,12.76,3,19.31-0.65,17.51-8.44,31.5-9.93,50.94" transform="translate(-298.77 -82.26)"/><path class="cls-2" d="M655.06,147.65l-4.56,19.78c-5.56,24.11-10.69,51.3,2,72.26,8.92,14.74,24.78,22.95,39.85,30.45l23.05,11.47" transform="translate(-298.77 -82.26)"/><text class="cls-3" transform="translate(308.66 323.59) scale(1.07 1)">CABLE</text><text class="cls-3" transform="translate(270.48 405.96) scale(1.07 1)">HOLLOW</text><text class="cls-3" transform="translate(373.54 491.84) scale(1.07 1)">G.C.</text><path class="cls-2" d="M818.62,147.65c4.29,13.46,10.81,29.16,18.78,41.36,4.23,6.47,9,12.78,11.8,19.8,4.87,12.16,3.3,24.79.66,36.26-1.44,6.27-3.21,12.52-6.64,17.62-9.17,13.65-23.27,19.54-34.18,34.16" transform="translate(-298.77 -82.26)"/><path class="cls-2" d="M818.62,147.65l-13.93,12.77c-17,15.57-35.06,33.92-33.48,59.55,1.11,18,11.89,35.57,22.28,52l15.89,25.14" transform="translate(-298.77 -82.26)"/><path class="cls-2" d="M968,178.28c-2.71,12.24-4.63,27-3.74,39.53,0.47,6.62,1.44,13.3.5,19.89-1.63,11.4-8.75,21-16.19,29.27-4.07,4.53-8.4,8.93-13.55,11.84-13.79,7.8-28,7.71-43.68,15.7" transform="translate(-298.77 -82.26)"/><path class="cls-2" d="M968,178.28l-17.27,5.48c-21,6.68-44.29,15.21-54.82,36.27-7.41,14.81-6.7,32.54-5.8,49.25l1.38,25.56" transform="translate(-298.77 -82.26)"/><path class="cls-2" d="M1082.42,287.81c-7.67,10-15.69,22.7-20.14,34.74-2.36,6.39-4.27,13.08-7.93,18.71-6.32,9.73-16.95,15-27.33,18.81-5.68,2.11-11.54,4-17.54,4-16.05.14-29.19-7.28-47.05-7.93" transform="translate(-298.77 -82.26)"/><path class="cls-2" d="M1082.42,287.81l-18.3-3.81c-22.3-4.65-47.41-8.71-66.05,5.41-13.1,9.92-19.94,26.74-26.16,42.7l-9.51,24.42" transform="translate(-298.77 -82.26)"/><path class="cls-2" d="M919.72,572.81c11.35,3.82,25.38,7,37.82,7.1,6.6,0,13.36-.44,19.59,1.08,10.77,2.63,18.47,10.84,24.82,19.29,3.47,4.62,6.75,9.51,8.39,15.13,4.38,15.05.91,29.94,5,47" transform="translate(-298.77 -82.26)"/><path class="cls-2" d="M919.72,572.81L921,591.32c1.55,22.56,4.4,47.56,22.53,60.28,12.75,8.94,30.28,9.64,46.86,10l25.35,0.62" transform="translate(-298.77 -82.26)"/><path class="cls-2" d="M984,507.34c11.66-.06,25.61-1.58,37.11-5.55,6.1-2.11,12.19-4.76,18.41-5.35,10.76-1,20.43,4.3,28.93,10.27,4.65,3.27,9.2,6.84,12.47,11.66,8.74,12.89,10.2,28.18,19.32,43" transform="translate(-298.77 -82.26)"/><path class="cls-2" d="M984,507.34l7,17.19c8.48,20.95,18.93,43.8,39.63,50,14.55,4.36,30.95-.69,46.36-5.69l23.58-7.66" transform="translate(-298.77 -82.26)"/><path class="cls-2" d="M1132.51,430c-10.71,5.39-22.82,13.13-31.51,21.93-4.61,4.66-8.94,9.82-14.39,13.18-9.43,5.82-20.88,5.54-31.57,4.12-5.85-.77-11.76-1.87-17.07-4.65-14.23-7.45-22.9-20.36-38.41-29.38" transform="translate(-298.77 -82.26)"/><path class="cls-2" d="M1132.51,430l-14.65-12.09c-17.86-14.73-38.43-30.25-60.46-26.27-15.49,2.8-28.17,14.78-40,26.29l-18,17.61" transform="translate(-298.77 -82.26)"/><path class="cls-2" d="M635.87,622c-4.53,11.88-8.67,26.55-9.69,39.49-0.54,6.86-.59,13.89-2.52,20.4-3.34,11.26-11.83,19.45-20.44,26.24-4.71,3.71-9.66,7.23-15.2,9.05-14.81,4.87-28.88,1.59-45.56,6.24" transform="translate(-298.77 -82.26)"/><path class="cls-2" d="M635.87,622L618,623.71c-21.82,2.1-46.09,5.6-59.7,24.73-9.57,13.45-11.56,31.71-13.2,49l-2.51,26.39" transform="translate(-298.77 -82.26)"/><path class="cls-2" d="M507.23,603.72A136.56,136.56,0,0,0,523,567.61c1.89-6.85,3.32-14,6.54-20.13,5.56-10.63,15.67-16.85,25.64-21.62,5.45-2.61,11.1-5,17-5.44,15.8-1.29,29.23,5.53,46.86,4.94" transform="translate(-298.77 -82.26)"/><path class="cls-2" d="M507.23,603.72c6.09,0.89,10.5,3.44,16.59,4.34,22.27,3.27,47.27,5.72,64.66-10.36,12.23-11.31,17.82-29.38,22.86-46.52L619.05,525" transform="translate(-298.77 -82.26)"/><path class="cls-2" d="M424.09,517.85a126.88,126.88,0,0,0,19.24-33.16c2.52-6.39,4.58-13.09,8.4-18.68,6.6-9.67,17.49-14.71,28.1-18.36,5.81-2,11.79-3.73,17.89-3.65,16.3,0.22,29.51,8,47.63,9" transform="translate(-298.77 -82.26)"/><path class="cls-2" d="M424.09,517.85c6.17,1.42,10.48,4.26,16.65,5.68,22.56,5.18,48,9.82,67.17-4,13.49-9.72,20.74-26.52,27.35-42.47l10.11-24.41" transform="translate(-298.77 -82.26)"/><path class="cls-2" d="M444.42,348.62c10.94-4.18,25.6-10.36,34.6-18,4.77-4.05,9.28-8.6,14.87-11.33,9.66-4.72,21.17-3.36,31.89-1,5.86,1.29,11.78,2.9,17,6.08,14.1,8.51,20.37,21.31,35.72,31.45" transform="translate(-298.77 -82.26)"/><path class="cls-2" d="M444.42,348.62l14.39,13c17.54,15.85,37.79,32.72,60.08,31,15.67-1.23,28.78-11.57,41-21.54l18.67-15.24" transform="translate(-298.77 -82.26)"/><path class="cls-2" d="M522.55,213.32c11.22,3.48,24.91,6.19,36.71,5.74,6.26-.24,12.62-1,18.7.28,10.53,2.26,18.82,10.46,25.85,19,3.85,4.65,7.55,9.58,9.77,15.35,6,15.44,4.47,31,10.42,48.53" transform="translate(-298.77 -82.26)"/><path class="cls-2" d="M522.55,213.32L526,232.48c4.19,23.35,9.89,49.19,28.61,61.61,13.16,8.73,29.87,8.7,45.63,8.41l24.11-.45" transform="translate(-298.77 -82.26)"/><path class="cls-4" d="M761.95,700c11.32,1.94,22.87-2.87,31.93-9.74s16.29-15.72,24.44-23.61a149.53,149.53,0,0,1,92.37-41.05c4.34-.31,7.6,1.88,7.6,6.38-13.75,11.72-23.08,20.34-36.83,32.06-7.19,6.13-14.4,12.28-20.77,19.21C831.63,715,823.07,762,835.15,802.79s43.19,75.06,81.36,95.67c9.86,5.33,20.23,9.84,29.5,16.11a267.28,267.28,0,0,1-69.52-3.44c-3.34-.61-6.86-1.27-10.08-0.21-2.35.78-4.3,2.4-6.53,3.47-6.8,3.24-15.15.76-21.31-3.51s-10.94-10.17-16.8-14.83c-2.27-1.8-4.84-3.47-7.75-3.77-5.41-.55-10,3.61-13.92,7.23a131.06,131.06,0,0,1-66.19,32.06c-6.69,1.12-16.53-1.18-15.32-7.68,0.43-2.3,2.29-4,4.06-5.62l27.78-24.79c1.87-1.66,3.89-3.71,3.66-6.16-0.41-4.26-6.52-5-10.84-4.15a103,103,0,0,0-43.38,19.19c-3.61,2.75-7.09,5.78-11.29,7.57-11.21,4.79-24-.28-36.16-1.4A55.34,55.34,0,0,0,610.08,923c-3.67,3.45-7.6,7.73-12.69,7.45-4.64-.26-8.22-4.62-8.74-9.11s1.39-8.93,3.9-12.73c18.81-28.57,64-25.91,90.22-48.24,8.86-7.54,15.09-17.59,20-28,13.56-28.87,17.7-62,10.68-93A135.3,135.3,0,0,0,662,660.61c-5.94-4.35-13-11.6-8.76-17.52,1.38-1.9,3.66-3,5.92-3.72,12.08-4,25.8-1,36.52,5.76s18.8,16.81,25.46,27.41c5.09,8.1,9.8,16.91,17.87,22.25,4.88,3.23,7.11,5.61,22.92,5.22" transform="translate(-298.77 -82.26)"/><text class="cls-5" transform="translate(185.96 1058.65) scale(1.07 1)">SCORECARD</text></svg>