<svg id="Layer_1" data-name="Layer 1" xmlns="http://www.w3.org/2000/svg" viewBox="0 0 164.61 60.31"><title>text</title><path d="M49.25,857.68a2.5,2.5,0,0,1,1.72-.62,2.4,2.4,0,0,1,2.42,2.5v19.61a19.8,19.8,0,0,1,5.47-4.53,17.2,17.2,0,0,1,8.2-2q6.33,0,10.08,3.83A11.57,11.57,0,0,1,80.57,885v29.61a2.65,2.65,0,0,1-.78,2,2.68,2.68,0,0,1-3.44,0,2.81,2.81,0,0,1-.7-2V885a7.52,7.52,0,0,0-2.19-5.55,8.36,8.36,0,0,0-6.41-2.5,14.09,14.09,0,0,0-7.58,2.19,22.5,22.5,0,0,0-6.09,6.09v29.3A2.55,2.55,0,0,1,51,917.29a2.34,2.34,0,0,1-1.72-.7,2.64,2.64,0,0,1-.7-2V859.56A2.53,2.53,0,0,1,49.25,857.68Z" transform="translate(-48.54 -857.06)"/><path d="M123.54,902.37a2.83,2.83,0,0,1,2,.08,2.13,2.13,0,0,1,1.33,1.17,2.67,2.67,0,0,1,0,2.19,18.08,18.08,0,0,1-6.56,8.36,17.59,17.59,0,0,1-10.31,3,15.51,15.51,0,0,1-13.28-6.87q-4.45-6.25-4.45-15.31t4.45-15.47a15.51,15.51,0,0,1,13.28-6.87,15.71,15.71,0,0,1,13.36,6.88q4.53,6.33,4.53,15.47v1.25H97.14a21.43,21.43,0,0,0,3.36,11.17q3.52,5.39,9.45,5.39a11.43,11.43,0,0,0,7.81-2.73,17.25,17.25,0,0,0,4.3-6.09A2.89,2.89,0,0,1,123.54,902.37Zm-0.86-10.47a19.93,19.93,0,0,0-3.36-9.77,11,11,0,0,0-9.37-5.16,10.81,10.81,0,0,0-9.3,5.08,19.67,19.67,0,0,0-3.36,9.84h25.39Z" transform="translate(-48.54 -857.06)"/><path d="M140.34,857.6a2.72,2.72,0,0,1,1.72-.55,2.6,2.6,0,0,1,1.64.55,2.17,2.17,0,0,1,.78,1.8v55.47a2.08,2.08,0,0,1-.78,1.72,2.4,2.4,0,0,1-1.64.63,2.5,2.5,0,0,1-1.72-.62,2.43,2.43,0,0,1-.7-1.8V859.32A2.18,2.18,0,0,1,140.34,857.6Z" transform="translate(-48.54 -857.06)"/><path d="M158.86,857.6a2.72,2.72,0,0,1,1.72-.55,2.6,2.6,0,0,1,1.64.55,2.17,2.17,0,0,1,.78,1.8v55.47a2.08,2.08,0,0,1-.78,1.72,2.4,2.4,0,0,1-1.64.63,2.5,2.5,0,0,1-1.72-.62,2.43,2.43,0,0,1-.7-1.8V859.32A2.18,2.18,0,0,1,158.86,857.6Z" transform="translate(-48.54 -857.06)"/><path d="M208.47,879.71q4.69,6.09,4.69,15.39t-4.69,15.31q-5.24,7-14.45,7t-14.53-7q-4.61-6.09-4.61-15.31t4.61-15.39q5.23-6.87,14.53-6.87T208.47,879.71Zm-25.31,3q-3.36,4.92-3.36,12.42a21.4,21.4,0,0,0,3.36,12.34A12.54,12.54,0,0,0,194,913a12.28,12.28,0,0,0,10.7-5.55,20.92,20.92,0,0,0,3.52-12.34q0-7.5-3.52-12.42a12.28,12.28,0,0,0-10.7-5.55A12.54,12.54,0,0,0,183.15,882.68Z" transform="translate(-48.54 -857.06)"/></svg>